<?xml version="1.0" encoding="utf-8"?>
<!-- Generator: Adobe Illustrator 19.0.0, SVG Export Plug-In . SVG Version: 6.00 Build 0)  -->
<svg version="1.1" id="Layer_1" xmlns="http://www.w3.org/2000/svg" xmlns:xlink="http://www.w3.org/1999/xlink" x="0px" y="0px"
	 viewBox="0 0 148 148" enable-background="new 0 0 148 148" xml:space="preserve">
<g id="shipping">
	<path id="XMLID_212_" fill="#FFFFFF" d="M30.6,86.3V126c0,3.6,3.4,6.6,7.5,6.6h6.3h25V86.3H30.6z"/>
	<path id="XMLID_211_" fill="#FFFFFF" d="M78.6,132.6h25h6.3c4.1,0,7.5-2.9,7.5-6.6V86.3H78.6V132.6z"/>
	<path id="XMLID_210_" fill="#FFFFFF" d="M126.1,57.9c0-2.9-2.2-5.4-5.3-6.3c-0.7-0.2-1.5-0.3-2.2-0.3h-40v21.7v5.6h40
		c0.8,0,1.5-0.1,2.2-0.3c3.1-0.8,5.3-3.3,5.3-6.3V57.9z"/>
	<path id="XMLID_209_" fill="#FFFFFF" d="M69.4,51.4h-40c-0.8,0-1.5,0.1-2.2,0.3c-3.1,0.8-5.3,3.3-5.3,6.3v14.2
		c0,2.9,2.2,5.4,5.3,6.3c0.7,0.2,1.5,0.3,2.2,0.3h40v-5.6V51.4z"/>
	<path id="XMLID_206_" fill="#FFFFFF" d="M108.3,25.2l-9.2-7c0,0-5.4-3.7-10.6-2.3C81,18,77,23,75.1,29.6c-0.6,2.2-0.9,5.4-1.1,5.4
		h-0.1c-0.1,0-0.5-3.2-1.1-5.4C71,23,67,17.8,59.5,15.7c-5.2-1.5-10.6,2.4-10.6,2.4l-9.2,7.1c0,0-3.2,3.4-1.8,7
		c2.6,6.5,8.8,10,16.5,11.6c5.7,1.1,6.8,0.9,19.6,0.9c12.7,0,13.8,0.3,19.7-0.9c7.7-1.6,13.8-5,16.5-11.5
		C111.5,28.5,108.3,25.2,108.3,25.2z"/>
</g>
</svg>
