<?xml version="1.0" encoding="utf-8"?>
<!-- Generator: Adobe Illustrator 19.0.0, SVG Export Plug-In . SVG Version: 6.00 Build 0)  -->
<svg version="1.1" id="Layer_1" xmlns="http://www.w3.org/2000/svg" xmlns:xlink="http://www.w3.org/1999/xlink" x="0px" y="0px"
	 viewBox="0 0 148 148" enable-background="new 0 0 148 148" xml:space="preserve">
<path id="general" fill="#FFFFFF" d="M128.4,28.7H19.6c-4.9,0-8.8,3.9-8.8,8.8v72.9c0,4.9,3.9,8.8,8.8,8.8h108.8
	c4.9,0,8.8-3.9,8.8-8.8V37.5C137.2,32.7,133.3,28.7,128.4,28.7z M101.2,71.8l21.6,21.6c1.9,1.9,1.9,5,0,7c-1,1-2.2,1.4-3.5,1.4
	s-2.5-0.5-3.5-1.4L93,77.5c-0.2-0.2-0.3-0.4-0.4-0.6L74.3,87.7c-0.8,0.5-1.6,0.7-2.5,0.7c-0.9,0-1.9-0.3-2.7-0.8L54.5,78l-22.3,22.3
	c-1,1-2.2,1.4-3.5,1.4s-2.5-0.5-3.5-1.4c-1.9-1.9-1.9-5,0-7l20.6-20.6l-0.1-0.4l-5.9-3.8c0,0,0,0,0,0l-14.7-9.6
	c-2.3-1.5-2.9-4.5-1.4-6.8c1.5-2.3,4.5-2.9,6.8-1.4l41.5,27l21.6-12.8c0,0,0,0,0,0l8-4.7l0,0l16.2-9.6c2.3-1.4,5.4-0.6,6.8,1.7
	c1.4,2.3,0.6,5.4-1.7,6.8l-16.2,9.6l0,0l-1.2,0.7L101.2,71.8L101.2,71.8z"/>
</svg>
