<?xml version="1.0" encoding="utf-8"?>
<!-- Generator: Adobe Illustrator 19.0.0, SVG Export Plug-In . SVG Version: 6.00 Build 0)  -->
<svg version="1.1" id="Layer_1" xmlns="http://www.w3.org/2000/svg" xmlns:xlink="http://www.w3.org/1999/xlink" x="0px" y="0px"
	 viewBox="0 0 148 148" enable-background="new 0 0 148 148" xml:space="preserve">
<path id="pr" fill="#FFFFFF" d="M135.2,25H34.7c-3.9,0-6.7,3.1-6.7,7v68c0,3.3-3.2,5.9-6.5,5.9S15,103.3,15,100V44.7
	c0,0-3.9,0.8-6.1,2.3C5.7,49,4,52.3,4,56.2v54.6c0,6.8,6.4,13.2,13.1,13.2h117.7c4.1,0,8.2-4.3,8.2-8.3V32
	C143,28.1,139.1,25,135.2,25z M68,111H49V99h19V111z M68,92H41V80h27V92z M68,71H41V60h27V71z M133,111H77V60h56V111z M133,53H41V41
	h92V53z"/>
</svg>
