<?xml version="1.0" encoding="utf-8"?>
<!-- Generator: Adobe Illustrator 19.0.0, SVG Export Plug-In . SVG Version: 6.00 Build 0)  -->
<svg version="1.1" id="Layer_1" xmlns="http://www.w3.org/2000/svg" xmlns:xlink="http://www.w3.org/1999/xlink" x="0px" y="0px"
	 viewBox="0 0 148 148" enable-background="new 0 0 148 148" xml:space="preserve">
<path id="support" fill="#FFFFFF" d="M114,17.8c0-4.3-3.5-7.8-7.8-7.8H40.8c-4.3,0-7.8,3.5-7.8,7.8v112.3c0,4.3,3.5,7.8,7.8,7.8
	h65.3c4.3,0,7.8-3.5,7.8-7.8V17.8z M73.7,128.3c-5.3,0-9.6-4.3-9.6-9.6c0-5.3,4.3-9.6,9.6-9.6c5.3,0,9.6,4.3,9.6,9.6
	C83.3,124,79,128.3,73.7,128.3z M103,91.1c0,2.5-2.5,4.9-5.7,4.9H50c-3.2,0-5-2.4-5-4.9V26c0-2.5,1.9-5,5-5h47.3
	c3.2,0,5.7,2.5,5.7,5V91.1z"/>
</svg>
