<?xml version="1.0" encoding="utf-8"?>
<!-- Generator: Adobe Illustrator 19.0.0, SVG Export Plug-In . SVG Version: 6.00 Build 0)  -->
<svg version="1.1" id="Layer_1" xmlns="http://www.w3.org/2000/svg" xmlns:xlink="http://www.w3.org/1999/xlink" x="0px" y="0px"
	 viewBox="0 0 148 148" enable-background="new 0 0 148 148" xml:space="preserve">
<g id="sales">
	<path id="XMLID_193_" fill="#FFFFFF" d="M52.2,98.5l0-57.8c0-4.7,3.8-8.5,8.5-8.5h0c4.7,0,8.5,3.8,8.5,8.5l0,57.8
		c0,4.7-3.8,8.5-8.5,8.5h0C56,107,52.2,103.2,52.2,98.5z"/>
	<path id="XMLID_192_" fill="#FFFFFF" d="M20.4,98.5l0-22.5c0-4.7,3.8-8.5,8.5-8.5h0c4.7,0,8.5,3.8,8.5,8.5l0,22.5
		c0,4.7-3.8,8.5-8.5,8.5h0C24.2,107,20.4,103.2,20.4,98.5z"/>
	<path id="XMLID_191_" fill="#FFFFFF" d="M81.7,98.5l0-76.3c0-4.7,3.8-8.5,8.5-8.5h0c4.7,0,8.5,3.8,8.5,8.5l0,76.3
		c0,4.7-3.8,8.5-8.5,8.5h0C85.5,107,81.7,103.2,81.7,98.5z"/>
	<path id="XMLID_190_" fill="#FFFFFF" d="M110.9,98.5l0-53.9c0-4.7,3.8-8.5,8.5-8.5h0c4.7,0,8.5,3.8,8.5,8.5l0,53.9
		c0,4.7-3.8,8.5-8.5,8.5h0C114.7,107,110.9,103.2,110.9,98.5z"/>
	<path id="XMLID_181_" fill="#FFFFFF" d="M19.8,117.3l108.4,0c4.7,0,8.5,3.8,8.5,8.5v0c0,4.7-3.8,8.5-8.5,8.5l-108.4,0
		c-4.7,0-8.5-3.8-8.5-8.5v0C11.3,121.1,15.1,117.3,19.8,117.3z"/>
</g>
</svg>
